<svg xmlns="http://www.w3.org/2000/svg" xmlns:xlink="http://www.w3.org/1999/xlink" width="24" height="24" viewBox="0 0 24 24">
    <defs>
        <path id="a" d="M0 0h24v24H0z"/>
        <path id="b" d="M10.696 17.177c3.312 0 6.023-2.798 6.023-6.251 0-3.454-2.71-6.252-6.023-6.252-3.312 0-6.022 2.798-6.022 6.252 0 3.453 2.71 6.251 6.022 6.251zm7.106-2.055l4.018 3.371a1.902 1.902 0 1 1-2.445 2.915l-4.136-3.471a7.992 7.992 0 0 1-4.543 1.414c-4.528 0-8.196-3.786-8.196-8.425 0-4.64 3.668-8.426 8.196-8.426 4.529 0 8.197 3.786 8.197 8.426 0 1.525-.397 2.959-1.09 4.196z"/>
    </defs>
    <g fill="none" fill-rule="evenodd">
        <mask id="c" fill="#fff">
            <use xlink:href="#b"/>
        </mask>
        <use fill="#CCCCCC" fill-rule="nonzero" xlink:href="#b"/>
        <g fill="#CCCCCC" mask="url(#c)">
            <path d="M0 0h24v24H0z"/>
        </g>
    </g>
</svg>
